<?xml version="1.0" encoding="UTF-8" standalone="no"?>
<svg width="1295px" height="855px" xmlns="http://www.w3.org/2000/svg" version="1.1">
    <title>Slice 1</title>
    <description>Created with Sketch (http://www.bohemiancoding.com/sketch)</description>
    <defs>
        <linearGradient id="gradient-1" x1="50%" y1="0%" x2="50%" y2="100%">
            <stop offset="0%" style="stop-color:rgb(255,255,255); stop-opacity:100"></stop>
            <stop offset="100%" style="stop-color:rgb(0,0,0); stop-opacity:100"></stop>
        </linearGradient>
        <linearGradient id="gradient-2" x1="50%" y1="0%" x2="50%" y2="100%">
            <stop offset="0%" style="stop-color:rgb(255,255,255); stop-opacity:100"></stop>
            <stop offset="100%" style="stop-color:rgb(0,0,0); stop-opacity:100"></stop>
        </linearGradient>
        <linearGradient id="gradient-3" x1="50%" y1="0%" x2="50%" y2="100%">
            <stop offset="0%" style="stop-color:rgb(255,255,255); stop-opacity:100"></stop>
            <stop offset="100%" style="stop-color:rgb(0,0,0); stop-opacity:100"></stop>
        </linearGradient>
        <linearGradient id="gradient-4" x1="50%" y1="0%" x2="50%" y2="100%">
            <stop offset="0%" style="stop-color:rgb(255,255,255); stop-opacity:100"></stop>
            <stop offset="100%" style="stop-color:rgb(0,0,0); stop-opacity:100"></stop>
        </linearGradient>
        <linearGradient id="gradient-5" x1="50%" y1="0%" x2="50%" y2="100%">
            <stop offset="0%" style="stop-color:rgb(255,255,255); stop-opacity:100"></stop>
            <stop offset="100%" style="stop-color:rgb(0,0,0); stop-opacity:100"></stop>
        </linearGradient>
        <linearGradient id="gradient-6" x1="50%" y1="0%" x2="50%" y2="100%">
            <stop offset="0%" style="stop-color:rgb(255,255,255); stop-opacity:100"></stop>
            <stop offset="100%" style="stop-color:rgb(0,0,0); stop-opacity:100"></stop>
        </linearGradient>
        <linearGradient id="gradient-7" x1="50%" y1="0%" x2="50%" y2="100%">
            <stop offset="0%" style="stop-color:rgb(255,255,255); stop-opacity:100"></stop>
            <stop offset="100%" style="stop-color:rgb(0,0,0); stop-opacity:100"></stop>
        </linearGradient>
        <linearGradient id="gradient-8" x1="50%" y1="0%" x2="50%" y2="100%">
            <stop offset="0%" style="stop-color:rgb(255,255,255); stop-opacity:100"></stop>
            <stop offset="100%" style="stop-color:rgb(0,0,0); stop-opacity:100"></stop>
        </linearGradient>
    </defs>
    <g fill="rgb(215,215,215)" id="Page 1">
        <g fill="rgb(50,50,50)" id="Rectangle 1"></g>
        <path id="Rectangle 1" d="M1,5 C1,2 2,1 5,1 L1290,1 C1292,1 1294,2 1294,5 L1294,850 C1294,852 1292,854 1290,854 L5,854 C2,854 1,852 1,850 Z M123,43 L123,61 C123,62 123,63 125,63 L1199,63 C1200,63 1201,62 1201,61 L1201,43 C1201,41 1200,41 1199,41 L125,41 C123,41 123,41 123,43 Z M58,24 C62,24 65,21 65,17 C65,13 62,11 58,11 C54,11 52,13 52,17 C52,21 54,24 58,24 Z M38,24 C42,24 45,21 45,17 C45,13 42,11 38,11 C34,11 32,13 32,17 C32,21 34,24 38,24 Z M18,24 C22,24 25,21 25,17 C25,13 22,11 18,11 C14,11 12,13 12,17 C12,21 14,24 18,24 Z M10,72 L10,847 L1285,847 L1285,72 Z M10,72" fill="rgb(50,50,50)"></path>
        <path id="Rectangle 1 decoration" d="" fill="rgb(50,50,50)"></path>
    </g>
</svg>