<?xml version="1.0" encoding="utf-8"?>
<!-- Generator: Adobe Illustrator 16.0.0, SVG Export Plug-In . SVG Version: 6.00 Build 0)  -->
<!DOCTYPE svg PUBLIC "-//W3C//DTD SVG 1.1//EN" "http://www.w3.org/Graphics/SVG/1.1/DTD/svg11.dtd">
<svg version="1.1" id="Layer_1" xmlns="http://www.w3.org/2000/svg" xmlns:xlink="http://www.w3.org/1999/xlink" x="0px" y="0px"
	 width="368px" height="659px" viewBox="0 0 368 659" enable-background="new 0 0 368 659" xml:space="preserve">
<g>
	<path fill="#333333" d="M185.159,549.342c-12.832,0-23.272,10.44-23.272,23.272s10.44,23.272,23.272,23.272
		s23.272-10.44,23.272-23.272S197.991,549.342,185.159,549.342z M193,577.589c0,1.817-1.27,3.411-3.086,3.411h-9.509
		c-1.815,0-3.405-1.594-3.405-3.411v-9.508c0-1.815,1.59-3.081,3.405-3.081h9.509c1.816,0,3.086,1.266,3.086,3.081V577.589z"/>
	<path fill="#333333" d="M189.914,567h-9.509c-0.713,0-1.405,0.368-1.405,1.081v9.508c0,0.715,0.692,1.411,1.405,1.411h9.509
		c0.714,0,1.086-0.696,1.086-1.411v-9.508C191,567.368,190.628,567,189.914,567z"/>
	<path fill="#333333" d="M279,47h-8v-1.452L270.074,45h-42.023L227,45.548V47H91c-22.092,0-40,17.909-40,40v39h-1.573L49,126.82
		v22.359l0.427,0.82H51v29h-1.573L49,179.012v18.337L49.427,198H51v29h-1.573L49,227.451v18.338L49.427,246H51v328
		c0,22.092,17.908,40,40,40h188c22.092,0,40-17.908,40-40V87C319,64.909,301.092,47,279,47z M185.159,597.887
		c-13.936,0-25.272-11.337-25.272-25.272s11.337-25.272,25.272-25.272s25.272,11.337,25.272,25.272S199.095,597.887,185.159,597.887
		z M299,535H69V129h230V535z"/>
</g>
</svg>
